<svg xmlns="http://www.w3.org/2000/svg" viewBox="0 0 120 248" role="img" aria-label="filter-sub identification schematic"><defs><linearGradient id="asset-filter-sub-metal"><stop stop-color="#62737e"/><stop offset=".25" stop-color="#bcc7cc"/><stop offset=".43" stop-color="#eef0ee"/><stop offset=".7" stop-color="#aab7bf"/><stop offset="1" stop-color="#61727f"/></linearGradient></defs><rect x="47" y="10" width="26" height="18" rx="2" fill="url(#asset-filter-sub-metal)" stroke="#43535d" stroke-width=".8"/><path d="M48 13l24 -1" fill="none" stroke="#43535d" stroke-width="1"/><path d="M48 15l24 -1" fill="none" stroke="#43535d" stroke-width="1"/><path d="M48 17l24 -1" fill="none" stroke="#43535d" stroke-width="1"/><path d="M48 19l24 -1" fill="none" stroke="#43535d" stroke-width="1"/><path d="M48 21l24 -1" fill="none" stroke="#43535d" stroke-width="1"/><path d="M48 23l24 -1" fill="none" stroke="#43535d" stroke-width="1"/><rect x="38" y="28" width="44" height="190" rx="2" fill="url(#asset-filter-sub-metal)" stroke="#43535d" stroke-width=".8"/><rect x="46" y="53" width="28" height="143" rx="2" fill="#dbe4e7" stroke="#43535d" stroke-width=".8"/><circle cx="51" cy="61" r="2" fill="#343e45" stroke="#43535d" stroke-width=".8"/><circle cx="60" cy="61" r="2" fill="#343e45" stroke="#43535d" stroke-width=".8"/><circle cx="69" cy="61" r="2" fill="#343e45" stroke="#43535d" stroke-width=".8"/><circle cx="51" cy="72" r="2" fill="#343e45" stroke="#43535d" stroke-width=".8"/><circle cx="60" cy="72" r="2" fill="#343e45" stroke="#43535d" stroke-width=".8"/><circle cx="69" cy="72" r="2" fill="#343e45" stroke="#43535d" stroke-width=".8"/><circle cx="51" cy="83" r="2" fill="#343e45" stroke="#43535d" stroke-width=".8"/><circle cx="60" cy="83" r="2" fill="#343e45" stroke="#43535d" stroke-width=".8"/><circle cx="69" cy="83" r="2" fill="#343e45" stroke="#43535d" stroke-width=".8"/><circle cx="51" cy="94" r="2" fill="#343e45" stroke="#43535d" stroke-width=".8"/><circle cx="60" cy="94" r="2" fill="#343e45" stroke="#43535d" stroke-width=".8"/><circle cx="69" cy="94" r="2" fill="#343e45" stroke="#43535d" stroke-width=".8"/><circle cx="51" cy="105" r="2" fill="#343e45" stroke="#43535d" stroke-width=".8"/><circle cx="60" cy="105" r="2" fill="#343e45" stroke="#43535d" stroke-width=".8"/><circle cx="69" cy="105" r="2" fill="#343e45" stroke="#43535d" stroke-width=".8"/><circle cx="51" cy="116" r="2" fill="#343e45" stroke="#43535d" stroke-width=".8"/><circle cx="60" cy="116" r="2" fill="#343e45" stroke="#43535d" stroke-width=".8"/><circle cx="69" cy="116" r="2" fill="#343e45" stroke="#43535d" stroke-width=".8"/><circle cx="51" cy="127" r="2" fill="#343e45" stroke="#43535d" stroke-width=".8"/><circle cx="60" cy="127" r="2" fill="#343e45" stroke="#43535d" stroke-width=".8"/><circle cx="69" cy="127" r="2" fill="#343e45" stroke="#43535d" stroke-width=".8"/><circle cx="51" cy="138" r="2" fill="#343e45" stroke="#43535d" stroke-width=".8"/><circle cx="60" cy="138" r="2" fill="#343e45" stroke="#43535d" stroke-width=".8"/><circle cx="69" cy="138" r="2" fill="#343e45" stroke="#43535d" stroke-width=".8"/><circle cx="51" cy="149" r="2" fill="#343e45" stroke="#43535d" stroke-width=".8"/><circle cx="60" cy="149" r="2" fill="#343e45" stroke="#43535d" stroke-width=".8"/><circle cx="69" cy="149" r="2" fill="#343e45" stroke="#43535d" stroke-width=".8"/><circle cx="51" cy="160" r="2" fill="#343e45" stroke="#43535d" stroke-width=".8"/><circle cx="60" cy="160" r="2" fill="#343e45" stroke="#43535d" stroke-width=".8"/><circle cx="69" cy="160" r="2" fill="#343e45" stroke="#43535d" stroke-width=".8"/><circle cx="51" cy="171" r="2" fill="#343e45" stroke="#43535d" stroke-width=".8"/><circle cx="60" cy="171" r="2" fill="#343e45" stroke="#43535d" stroke-width=".8"/><circle cx="69" cy="171" r="2" fill="#343e45" stroke="#43535d" stroke-width=".8"/><circle cx="51" cy="182" r="2" fill="#343e45" stroke="#43535d" stroke-width=".8"/><circle cx="60" cy="182" r="2" fill="#343e45" stroke="#43535d" stroke-width=".8"/><circle cx="69" cy="182" r="2" fill="#343e45" stroke="#43535d" stroke-width=".8"/><rect x="47" y="217" width="26" height="18" rx="2" fill="url(#asset-filter-sub-metal)" stroke="#43535d" stroke-width=".8"/><path d="M48 220l24 -1" fill="none" stroke="#43535d" stroke-width="1"/><path d="M48 222l24 -1" fill="none" stroke="#43535d" stroke-width="1"/><path d="M48 224l24 -1" fill="none" stroke="#43535d" stroke-width="1"/><path d="M48 226l24 -1" fill="none" stroke="#43535d" stroke-width="1"/><path d="M48 228l24 -1" fill="none" stroke="#43535d" stroke-width="1"/><path d="M48 230l24 -1" fill="none" stroke="#43535d" stroke-width="1"/></svg>