<svg xmlns="http://www.w3.org/2000/svg" viewBox="0 0 120 248" role="img" aria-label="nonrotating-stabilizer identification schematic"><defs><linearGradient id="asset-nonrotating-stabilizer-metal"><stop stop-color="#62737e"/><stop offset=".25" stop-color="#bcc7cc"/><stop offset=".43" stop-color="#eef0ee"/><stop offset=".7" stop-color="#aab7bf"/><stop offset="1" stop-color="#61727f"/></linearGradient></defs><rect x="47" y="10" width="26" height="18" rx="2" fill="url(#asset-nonrotating-stabilizer-metal)" stroke="#43535d" stroke-width=".8"/><path d="M48 13l24 -1" fill="none" stroke="#43535d" stroke-width="1"/><path d="M48 15l24 -1" fill="none" stroke="#43535d" stroke-width="1"/><path d="M48 17l24 -1" fill="none" stroke="#43535d" stroke-width="1"/><path d="M48 19l24 -1" fill="none" stroke="#43535d" stroke-width="1"/><path d="M48 21l24 -1" fill="none" stroke="#43535d" stroke-width="1"/><path d="M48 23l24 -1" fill="none" stroke="#43535d" stroke-width="1"/><rect x="46" y="28" width="28" height="190" rx="2" fill="url(#asset-nonrotating-stabilizer-metal)" stroke="#43535d" stroke-width=".8"/><rect x="33" y="72" width="54" height="115" rx="2" fill="url(#asset-nonrotating-stabilizer-metal)" stroke="#43535d" stroke-width=".8"/><path d="M35 79v100M85 79v100" fill="none" stroke="#b79a5e" stroke-width="5"/><rect x="35" y="59" width="50" height="10" rx="2" fill="url(#asset-nonrotating-stabilizer-metal)" stroke="#43535d" stroke-width=".8"/><rect x="35" y="190" width="50" height="10" rx="2" fill="url(#asset-nonrotating-stabilizer-metal)" stroke="#43535d" stroke-width=".8"/><circle cx="40" cy="64" r="2" fill="#b79a5e" stroke="#43535d" stroke-width=".8"/><circle cx="50" cy="64" r="2" fill="#b79a5e" stroke="#43535d" stroke-width=".8"/><circle cx="60" cy="64" r="2" fill="#b79a5e" stroke="#43535d" stroke-width=".8"/><circle cx="70" cy="64" r="2" fill="#b79a5e" stroke="#43535d" stroke-width=".8"/><circle cx="80" cy="64" r="2" fill="#b79a5e" stroke="#43535d" stroke-width=".8"/><rect x="47" y="217" width="26" height="18" rx="2" fill="url(#asset-nonrotating-stabilizer-metal)" stroke="#43535d" stroke-width=".8"/><path d="M48 220l24 -1" fill="none" stroke="#43535d" stroke-width="1"/><path d="M48 222l24 -1" fill="none" stroke="#43535d" stroke-width="1"/><path d="M48 224l24 -1" fill="none" stroke="#43535d" stroke-width="1"/><path d="M48 226l24 -1" fill="none" stroke="#43535d" stroke-width="1"/><path d="M48 228l24 -1" fill="none" stroke="#43535d" stroke-width="1"/><path d="M48 230l24 -1" fill="none" stroke="#43535d" stroke-width="1"/></svg>