<svg xmlns="http://www.w3.org/2000/svg" viewBox="0 0 120 248" role="img" aria-label="pdc-bit identification schematic"><defs><linearGradient id="asset-pdc-bit-metal"><stop stop-color="#62737e"/><stop offset=".25" stop-color="#bcc7cc"/><stop offset=".43" stop-color="#eef0ee"/><stop offset=".7" stop-color="#aab7bf"/><stop offset="1" stop-color="#61727f"/></linearGradient></defs><rect x="47" y="10" width="26" height="18" rx="2" fill="url(#asset-pdc-bit-metal)" stroke="#43535d" stroke-width=".8"/><path d="M48 13l24 -1" fill="none" stroke="#43535d" stroke-width="1"/><path d="M48 15l24 -1" fill="none" stroke="#43535d" stroke-width="1"/><path d="M48 17l24 -1" fill="none" stroke="#43535d" stroke-width="1"/><path d="M48 19l24 -1" fill="none" stroke="#43535d" stroke-width="1"/><path d="M48 21l24 -1" fill="none" stroke="#43535d" stroke-width="1"/><path d="M48 23l24 -1" fill="none" stroke="#43535d" stroke-width="1"/><rect x="46" y="28" width="28" height="79" rx="2" fill="url(#asset-pdc-bit-metal)" stroke="#43535d" stroke-width=".8"/><path d="M39 98h42l17 25v62q0 42-38 42t-38-42v-62z" fill="url(#asset-pdc-bit-metal)" stroke="#43535d" stroke-width="1"/><path d="M28 128q18 33 4 86" fill="none" stroke="#b79a5e" stroke-width="9"/><circle cx="31" cy="139" r="4" fill="#343e45" stroke="#43535d" stroke-width=".8"/><circle cx="31" cy="160" r="4" fill="#343e45" stroke="#43535d" stroke-width=".8"/><circle cx="31" cy="181" r="4" fill="#343e45" stroke="#43535d" stroke-width=".8"/><circle cx="31" cy="202" r="4" fill="#343e45" stroke="#43535d" stroke-width=".8"/><path d="M49.33333333333333 128q18 33 4 86" fill="none" stroke="#b79a5e" stroke-width="9"/><circle cx="52.33333333333333" cy="139" r="4" fill="#343e45" stroke="#43535d" stroke-width=".8"/><circle cx="52.33333333333333" cy="160" r="4" fill="#343e45" stroke="#43535d" stroke-width=".8"/><circle cx="52.33333333333333" cy="181" r="4" fill="#343e45" stroke="#43535d" stroke-width=".8"/><circle cx="52.33333333333333" cy="202" r="4" fill="#343e45" stroke="#43535d" stroke-width=".8"/><path d="M70.66666666666666 128q18 33 4 86" fill="none" stroke="#b79a5e" stroke-width="9"/><circle cx="73.66666666666666" cy="139" r="4" fill="#343e45" stroke="#43535d" stroke-width=".8"/><circle cx="73.66666666666666" cy="160" r="4" fill="#343e45" stroke="#43535d" stroke-width=".8"/><circle cx="73.66666666666666" cy="181" r="4" fill="#343e45" stroke="#43535d" stroke-width=".8"/><circle cx="73.66666666666666" cy="202" r="4" fill="#343e45" stroke="#43535d" stroke-width=".8"/><path d="M92 128q18 33 4 86" fill="none" stroke="#b79a5e" stroke-width="9"/><circle cx="95" cy="139" r="4" fill="#343e45" stroke="#43535d" stroke-width=".8"/><circle cx="95" cy="160" r="4" fill="#343e45" stroke="#43535d" stroke-width=".8"/><circle cx="95" cy="181" r="4" fill="#343e45" stroke="#43535d" stroke-width=".8"/><circle cx="95" cy="202" r="4" fill="#343e45" stroke="#43535d" stroke-width=".8"/></svg>