<svg xmlns="http://www.w3.org/2000/svg" viewBox="0 0 120 248" role="img" aria-label="safety-joint identification schematic"><defs><linearGradient id="asset-safety-joint-metal"><stop stop-color="#62737e"/><stop offset=".25" stop-color="#bcc7cc"/><stop offset=".43" stop-color="#eef0ee"/><stop offset=".7" stop-color="#aab7bf"/><stop offset="1" stop-color="#61727f"/></linearGradient></defs><rect x="47" y="10" width="26" height="18" rx="2" fill="url(#asset-safety-joint-metal)" stroke="#43535d" stroke-width=".8"/><path d="M48 13l24 -1" fill="none" stroke="#43535d" stroke-width="1"/><path d="M48 15l24 -1" fill="none" stroke="#43535d" stroke-width="1"/><path d="M48 17l24 -1" fill="none" stroke="#43535d" stroke-width="1"/><path d="M48 19l24 -1" fill="none" stroke="#43535d" stroke-width="1"/><path d="M48 21l24 -1" fill="none" stroke="#43535d" stroke-width="1"/><path d="M48 23l24 -1" fill="none" stroke="#43535d" stroke-width="1"/><rect x="40" y="28" width="40" height="190" rx="2" fill="url(#asset-safety-joint-metal)" stroke="#43535d" stroke-width=".8"/><rect x="36.5" y="92" width="47" height="15" rx="2" fill="url(#asset-safety-joint-metal)" stroke="#43535d" stroke-width=".8"/><path d="M40 121h13v14h14v-14h13v22H40z" fill="#b79a5e" stroke="#43535d" stroke-width="1"/><rect x="37.5" y="150" width="45" height="8" rx="2" fill="url(#asset-safety-joint-metal)" stroke="#43535d" stroke-width=".8"/><rect x="47" y="217" width="26" height="18" rx="2" fill="url(#asset-safety-joint-metal)" stroke="#43535d" stroke-width=".8"/><path d="M48 220l24 -1" fill="none" stroke="#43535d" stroke-width="1"/><path d="M48 222l24 -1" fill="none" stroke="#43535d" stroke-width="1"/><path d="M48 224l24 -1" fill="none" stroke="#43535d" stroke-width="1"/><path d="M48 226l24 -1" fill="none" stroke="#43535d" stroke-width="1"/><path d="M48 228l24 -1" fill="none" stroke="#43535d" stroke-width="1"/><path d="M48 230l24 -1" fill="none" stroke="#43535d" stroke-width="1"/></svg>