<svg xmlns="http://www.w3.org/2000/svg" viewBox="0 0 120 248" role="img" aria-label="sleeve-stabilizer identification schematic"><defs><linearGradient id="asset-sleeve-stabilizer-metal"><stop stop-color="#62737e"/><stop offset=".25" stop-color="#bcc7cc"/><stop offset=".43" stop-color="#eef0ee"/><stop offset=".7" stop-color="#aab7bf"/><stop offset="1" stop-color="#61727f"/></linearGradient></defs><rect x="47" y="10" width="26" height="18" rx="2" fill="url(#asset-sleeve-stabilizer-metal)" stroke="#43535d" stroke-width=".8"/><path d="M48 13l24 -1" fill="none" stroke="#43535d" stroke-width="1"/><path d="M48 15l24 -1" fill="none" stroke="#43535d" stroke-width="1"/><path d="M48 17l24 -1" fill="none" stroke="#43535d" stroke-width="1"/><path d="M48 19l24 -1" fill="none" stroke="#43535d" stroke-width="1"/><path d="M48 21l24 -1" fill="none" stroke="#43535d" stroke-width="1"/><path d="M48 23l24 -1" fill="none" stroke="#43535d" stroke-width="1"/><rect x="46" y="28" width="28" height="190" rx="2" fill="url(#asset-sleeve-stabilizer-metal)" stroke="#43535d" stroke-width=".8"/><rect x="37" y="65" width="46" height="124" rx="2" fill="url(#asset-sleeve-stabilizer-metal)" stroke="#43535d" stroke-width=".8"/><rect x="27" y="71" width="15" height="110" rx="2" fill="url(#asset-sleeve-stabilizer-metal)" stroke="#43535d" stroke-width=".8"/><rect x="53" y="63" width="14" height="123" rx="2" fill="url(#asset-sleeve-stabilizer-metal)" stroke="#43535d" stroke-width=".8"/><rect x="78" y="77" width="15" height="99" rx="2" fill="url(#asset-sleeve-stabilizer-metal)" stroke="#43535d" stroke-width=".8"/><rect x="32.5" y="56" width="55" height="9" rx="2" fill="url(#asset-sleeve-stabilizer-metal)" stroke="#43535d" stroke-width=".8"/><rect x="32.5" y="191" width="55" height="10" rx="2" fill="url(#asset-sleeve-stabilizer-metal)" stroke="#43535d" stroke-width=".8"/><rect x="47" y="217" width="26" height="18" rx="2" fill="url(#asset-sleeve-stabilizer-metal)" stroke="#43535d" stroke-width=".8"/><path d="M48 220l24 -1" fill="none" stroke="#43535d" stroke-width="1"/><path d="M48 222l24 -1" fill="none" stroke="#43535d" stroke-width="1"/><path d="M48 224l24 -1" fill="none" stroke="#43535d" stroke-width="1"/><path d="M48 226l24 -1" fill="none" stroke="#43535d" stroke-width="1"/><path d="M48 228l24 -1" fill="none" stroke="#43535d" stroke-width="1"/><path d="M48 230l24 -1" fill="none" stroke="#43535d" stroke-width="1"/></svg>