<svg xmlns="http://www.w3.org/2000/svg" viewBox="0 0 120 248" role="img" aria-label="variable-gauge-stabilizer identification schematic"><defs><linearGradient id="asset-variable-gauge-stabilizer-metal"><stop stop-color="#62737e"/><stop offset=".25" stop-color="#bcc7cc"/><stop offset=".43" stop-color="#eef0ee"/><stop offset=".7" stop-color="#aab7bf"/><stop offset="1" stop-color="#61727f"/></linearGradient></defs><rect x="47" y="10" width="26" height="18" rx="2" fill="url(#asset-variable-gauge-stabilizer-metal)" stroke="#43535d" stroke-width=".8"/><path d="M48 13l24 -1" fill="none" stroke="#43535d" stroke-width="1"/><path d="M48 15l24 -1" fill="none" stroke="#43535d" stroke-width="1"/><path d="M48 17l24 -1" fill="none" stroke="#43535d" stroke-width="1"/><path d="M48 19l24 -1" fill="none" stroke="#43535d" stroke-width="1"/><path d="M48 21l24 -1" fill="none" stroke="#43535d" stroke-width="1"/><path d="M48 23l24 -1" fill="none" stroke="#43535d" stroke-width="1"/><rect x="41" y="28" width="38" height="190" rx="2" fill="url(#asset-variable-gauge-stabilizer-metal)" stroke="#43535d" stroke-width=".8"/><rect x="25" y="104" width="13" height="64" rx="2" fill="url(#asset-variable-gauge-stabilizer-metal)" stroke="#43535d" stroke-width=".8"/><rect x="82" y="104" width="13" height="64" rx="2" fill="url(#asset-variable-gauge-stabilizer-metal)" stroke="#43535d" stroke-width=".8"/><path d="M38 108h9M73 108h9M38 164h9M73 164h9" fill="none" stroke="#b79a5e" stroke-width="4"/><rect x="38" y="74" width="44" height="18" rx="2" fill="url(#asset-variable-gauge-stabilizer-metal)" stroke="#43535d" stroke-width=".8"/><rect x="47" y="217" width="26" height="18" rx="2" fill="url(#asset-variable-gauge-stabilizer-metal)" stroke="#43535d" stroke-width=".8"/><path d="M48 220l24 -1" fill="none" stroke="#43535d" stroke-width="1"/><path d="M48 222l24 -1" fill="none" stroke="#43535d" stroke-width="1"/><path d="M48 224l24 -1" fill="none" stroke="#43535d" stroke-width="1"/><path d="M48 226l24 -1" fill="none" stroke="#43535d" stroke-width="1"/><path d="M48 228l24 -1" fill="none" stroke="#43535d" stroke-width="1"/><path d="M48 230l24 -1" fill="none" stroke="#43535d" stroke-width="1"/></svg>